<?xml version="1.0" encoding="UTF-8" standalone="no"?>
<!-- Created with Inkscape (http://www.inkscape.org/) -->

<svg
   xmlns:dc="http://purl.org/dc/elements/1.1/"
   xmlns:cc="http://creativecommons.org/ns#"
   xmlns:rdf="http://www.w3.org/1999/02/22-rdf-syntax-ns#"
   xmlns:svg="http://www.w3.org/2000/svg"
   xmlns="http://www.w3.org/2000/svg"
   xmlns:sodipodi="http://sodipodi.sourceforge.net/DTD/sodipodi-0.dtd"
   xmlns:inkscape="http://www.inkscape.org/namespaces/inkscape"
   width="11in"
   height="8.5in"
   viewBox="0 0 990 765"
   id="svg6572"
   version="1.1"
   inkscape:version="0.91 r13725"
   sodipodi:docname="flag.svg">
  <defs
     id="defs6574" />
  <sodipodi:namedview
     id="base"
     pagecolor="#ffffff"
     bordercolor="#666666"
     borderopacity="1.0"
     inkscape:pageopacity="0.0"
     inkscape:pageshadow="2"
     inkscape:zoom="0.24748737"
     inkscape:cx="-64.903604"
     inkscape:cy="210.22852"
     inkscape:document-units="px"
     inkscape:current-layer="layer1"
     showgrid="false"
     units="in"
     inkscape:window-width="1440"
     inkscape:window-height="876"
     inkscape:window-x="0"
     inkscape:window-y="256"
     inkscape:window-maximized="1" />
  <metadata
     id="metadata6577">
    <rdf:RDF>
      <cc:Work
         rdf:about="">
        <dc:format>image/svg+xml</dc:format>
        <dc:type
           rdf:resource="http://purl.org/dc/dcmitype/StillImage" />
        <dc:title></dc:title>
      </cc:Work>
    </rdf:RDF>
  </metadata>
  <g
     inkscape:label="Layer 1"
     inkscape:groupmode="layer"
     id="layer1"
     transform="translate(0,-287.3622)">
    <path
       style="opacity:1;fill:#008000;fill-opacity:1;stroke:none;stroke-width:12.30000019;stroke-linecap:butt;stroke-linejoin:round;stroke-miterlimit:3.9000001;stroke-dasharray:none;stroke-dashoffset:0;stroke-opacity:1"
       d="m 464.44826,-49.94138 c -178.96308,1.54e-4 -350.59628,71.093023 -477.142283,197.63902 -126.545997,126.546 -197.638797,298.17916 -197.638997,477.14223 2e-4,178.96307 71.093,350.59624 197.638997,477.14223 126.546003,126.546 298.179203,197.6388 477.142283,197.639 178.96307,-2e-4 350.59622,-71.093 477.14222,-197.639 C 1068.1365,975.43609 1139.2293,803.80294 1139.2295,624.83987 1139.2293,445.87681 1068.1365,274.24365 941.59047,147.69765 815.04448,21.151658 643.41132,-49.941216 464.44826,-49.94138 Z m 0,351.5332 c 178.52479,4.3e-4 323.24762,144.72326 323.24804,323.24805 -0.11825,73.0862 -25.00074,143.97523 -70.58789,201.10156 -7.32565,-3.18108 -14.2547,-7.9375 -21.11495,-12.34933 -16.37664,-12.2745 -1.28235,-35.66637 1.988,-50.40067 9.83238,-26.2019 4.09837,-58.95575 6.55469,-90.07031 -2.45987,-14.7379 3.27735,-23.74303 5.72656,-35.20703 3.27746,-17.19422 -11.46267,-22.1104 -20.4668,-28.65821 -17.19067,-9.00768 -22.10442,9.82637 -31.92969,17.19532 -2.45632,1.63518 -4.91477,1.63518 -7.37109,0 0,-7.36895 -1.63986,-13.9213 -3.27148,-20.47266 -2.45632,-2.45987 -5.73237,-4.09446 -7.3711,-6.55078 -13.92032,-2.45987 -13.10308,-22.92347 -31.11133,-20.47071 -16.38019,3.27747 -30.30034,10.64531 -48.30859,11.4629 -23.74204,-0.81759 -44.21765,-8.18646 -67.9668,-10.625 -29.47225,-3.27391 -49.9486,9.00758 -72.87304,18.01171 -5.73022,3.27746 -13.91543,2.4558 -20.4668,4.91211 -19.65054,9.82883 -39.30182,18.01653 -58.13477,27.8418 l -3.27343,0.81641 c -4.09504,3.27745 -9.82561,4.09641 -14.73831,6.55273 l -18.832,0.81641 c -15.5555,-0.81759 -34.386,2.45612 -44.2149,-7.36914 -9.0076,0 -17.1946,-3.27273 -25.3847,-0.81641 -8.1866,5.73022 -18.0111,8.18923 -24.5625,17.19336 -7.369,9.82882 -4.0915,26.20207 0,36.02734 -4.0915,15.55903 -15.5554,26.20229 -18.0117,43.39649 2.3478,18.81046 -22.2967,6.87872 -27.9981,16.5957 -15.0161,-37.85586 -22.7435,-78.20832 -22.7754,-118.93359 4e-4,-178.52481 144.7233,-323.24765 323.24808,-323.24805 z M 188.88818,757.22775 c 6.5514,0 8.8194,0.24759 12.0933,4.34259 2.4563,9.0041 -6.5515,11.46004 -10.6465,16.36914 -2.7316,1.05105 -5.4637,2.2664 -8.1953,3.58593 -4.3676,-7.89088 -5.8776,-10.65779 -9.5703,-18.88615 8.0757,0.0778 10.8062,-5.24343 16.3188,-5.41151 z m 396.12062,3.06329 c 0.71833,0.005 1.52353,0.14 2.44531,0.44727 6.54781,4.09149 6.54873,13.10142 12.27539,18.82812 3.27747,9.0112 -9.00507,9.01143 -8.1875,18.01562 9.00415,9.00411 17.19895,-4.91618 27.8418,0 3.27746,1.63871 4.91526,3.27133 6.54688,6.54883 -2.4492,15.5555 -17.18917,20.47161 -27.83203,28.65821 -3.27746,3.2774 -9.01172,4.91597 -9.01172,10.64257 1.63873,4.9162 5.73426,4.91604 9.01172,7.36524 9.00413,-1.6316 13.09873,-9.00768 18.00781,-14.73438 3.27746,-5.7338 13.92046,-5.73361 21.29297,-4.91601 4.08794,1.6387 9.00384,4.91707 10.64257,9.82617 2.44921,7.3725 -2.45976,12.27997 -3.27734,18.01367 -3.27746,9.0042 -5.43348,22.59662 -8.71094,30.7832 0.78789,1.57917 -0.2645,6.65633 1.85547,7.75586 -30.12105,19.03883 -63.18282,32.96624 -97.84765,41.21875 -6.67254,-5.2763 -15.96919,-11.82669 -18.11328,-13.43359 -13.92032,-4.0915 -27.01942,-13.9164 -30.29688,-28.6543 -2.45632,-8.1937 0.82102,-13.92095 3.27734,-20.46875 17.19778,-21.2964 20.46852,-52.40625 27.02344,-81.06445 l 2.45703,-4.0957 c 8.18654,-4.0879 17.19042,-7.36518 25.37696,-10.64258 10.64997,-4.088 19.65407,-9.00435 28.6582,-16.37695 1.99575,-1.32568 3.45168,-3.73781 6.56445,-3.7168 z m -363.50972,17.20117 c 1.2682,10e-4 2.6119,0.14112 4.0449,0.44727 8.1866,4.0951 18.8329,5.73422 28.6582,9.01172 5.7337,1.6351 5.7351,9.00252 6.5527,14.73632 4.0915,7.3689 -3.274,15.55253 1.6387,22.10743 1.6351,3.2704 4.9116,4.09255 8.1855,4.91015 3.2739,-1.6387 9.0086,-3.2713 9.8262,-8.1875 -0.8212,-9.0077 -8.1907,-16.38054 -4.0957,-27.02344 1.6387,-2.4599 4.0945,-2.45984 6.5508,-3.27734 16.3731,1.6387 28.6593,7.37302 44.2148,9.01172 15.55555,2.4563 27.83558,-2.45974 41.75589,-3.27734 18.83296,3.2775 38.48422,4.90967 58.13476,5.73437 15.55549,0.814 30.29726,2.45193 45.03516,3.26953 5.72667,2.4563 2.45703,8.19322 2.45703,13.91992 -0.81759,9.8252 -14.73816,4.91585 -18.01562,12.28125 -3.27745,4.9162 -1.63868,13.92095 -1.63868,20.46875 -0.81758,4.9162 -7.36511,4.91675 -10.64257,7.37305 -10.64641,0 -23.747,4.9091 -33.57227,0 -13.10273,-3.2739 -22.92798,3.26929 -28.6582,11.46289 -0.81759,5.7338 5.73391,4.09558 9.00781,5.73438 10.64286,0 20.4677,-3.2775 30.29297,0 3.27746,2.4527 4.91288,5.73117 5.73047,9.82617 -2.45276,19.6506 -24.55987,22.10707 -34.38867,34.38867 -2.4924,5.60987 -7.34556,10.74932 -8.08204,17.2168 -81.19774,-20.74223 -151.16604,-72.2087 -195.14844,-143.54493 l 11.6387,-5.49218 c 6.4478,-4.30168 11.64,-11.10494 20.5176,-11.09766 z m 468.50889,54.14146 c 5.69169,0.74704 13.49424,7.13756 13.93331,11.81083 -7.18149,12.74006 -42.85538,42.30469 -42.24107,37.3192 5.73378,-13.9204 -0.55899,-38.15619 13.36133,-45.52149 4.09327,-2.45635 8.80563,-3.50634 14.94643,-3.60854 z m -237.8937,70.9269 c 18.75861,0.30219 20.83175,16.25469 34.90625,25.21094 3.23302,3.23771 6.47339,11.11139 10.41016,16.82226 -14.89446,2.21098 -17.9252,3.37854 -32.98242,3.49414 -21.53184,-0.002 -43.00961,-2.15518 -64.11329,-6.42773 1.86342,-2.80123 2.60131,-6.47837 3.70313,-9.79102 6.55136,-12.2815 20.47237,-17.19816 31.11523,-25.38476 6.09014,-2.86622 11.70853,-4.00844 16.96094,-3.92383 z m 66.85547,94.88286 44.9082,24.86127 0,54.0703 -44.9082,-24.7988 z m -6.39453,0.043 0,54.02537 -51.32422,28.3067 0,0.5781 c -0.12832,6.6757 -0.4067,20.6046 25.98242,76 16.4023,34.3841 24.44354,56.4657 25.32031,69.539 l 0,0.6641 -45.12304,24.8184 -0.21289,-1.5606 c -2.50205,-17.8233 -15.24784,-46.5598 -28.65625,-74.8887 -22.28319,-47.2434 -22.17539,-59.5892 -22.08985,-70.373 l -51.45312,28.3301 0,-53.8985 z m 3.18555,59.63087 44.65234,24.6269 -44.52344,24.586 -0.53516,-0.3008 -44.0957,-24.3067 z m -47.5586,30.3828 44.35156,24.3926 0,0.705 c -1.06924,13.0946 -8.51048,31.7541 -14.96875,46.5391 l 0,-0.022 -1.07031,2.3106 -1.0039,-2.2891 c -0.94093,-2.1396 -2.39682,-5.3281 -4.1504,-9.1152 -7.67722,-16.6893 -20.50692,-44.5903 -22.83789,-60.3809 z m -57.82617,27.8164 0.21484,1.5605 c 1.36864,9.821 5.28047,21.9956 12.67969,39.4551 l 0.38672,0.9004 -10.35156,5.6914 -44.75782,-24.5 z m 22.07031,61.75 2.69336,5.8418 c 7.91245,17.1172 22.66897,49.0618 25.40625,66.0078 l 0.36328,2.1387 -44.41601,-24.4336 0,-0.6856 c 0.85539,-12.838 8.55325,-32.4803 14.96875,-46.7304 z"
       id="circle7412"
       inkscape:connector-curvature="0"
       sodipodi:nodetypes="sssssssssscccccccccccccccccccccccccccsccccccsccccccccccccccccccccccsscccccccccccccccccccccccccscccccsccccccscccccccccccccccccccccccccccccccccccccccccccccccccc" />
    <g
       id="g5464"
       style="fill:#00a600;fill-opacity:1"
       transform="matrix(3.5547286,0,0,3.5547286,100.57438,409.96086)">
      <path
         id="path5325"
         d="m 145.719,50.076 c 0.23,0.46 0.23,1.382 0,1.612 -2.072,0.691 -4.838,0.23 -6.219,-0.461 0.23,-1.151 1.611,-1.382 2.764,-1.612 1.152,0 2.533,-0.23 3.455,0.461 l 0,0 z"
         style="clip-rule:evenodd;fill:#00a600;fill-opacity:1;fill-rule:evenodd"
         inkscape:connector-curvature="0" />
      <path
         id="path5327"
         d="m 100.572,54.913 c -0.922,1.613 -2.764,2.073 -4.146,3.455 l -8.292,3.225 c -1.381,0.461 -3.224,1.152 -4.837,0.691 -0.23,-1.612 1.613,-2.073 2.534,-3.225 3.916,-2.534 9.213,-3.225 13.589,-4.837 0.691,0 1.152,0.23 1.152,0.691 l 0,0 z"
         style="clip-rule:evenodd;fill:#00a600;fill-opacity:1;fill-rule:evenodd"
         inkscape:connector-curvature="0" />
      <path
         id="path5329"
         d="m 146.871,55.374 c 0.689,0.921 1.842,1.843 0.92,3.225 -1.15,1.152 -2.994,2.534 -4.836,1.612 -1.844,-1.151 -2.994,-2.764 -4.146,-4.606 -0.23,-0.691 0.461,-0.691 0.691,-0.922 2.764,-0.231 5.066,0.23 7.371,0.691 l 0,0 z"
         style="clip-rule:evenodd;fill:#00a600;fill-opacity:1;fill-rule:evenodd"
         inkscape:connector-curvature="0" />
      <path
         id="path5331"
         d="m 126.141,58.138 c -0.461,4.146 3.914,8.522 0,11.517 -2.996,3.916 -7.832,5.067 -12.9,5.988 -5.297,-0.23 -7.141,-4.837 -10.826,-7.141 -1.15,-0.46 -1.842,-1.843 -1.381,-3.455 -2.535,-0.69 -3.455,2.304 -4.838,3.455 -2.994,1.382 -7.371,0.922 -10.826,1.613 -2.995,0.23 -5.989,0.691 -8.983,0.921 -1.612,0.46 -2.533,1.151 -4.376,1.151 -0.461,-0.691 0.691,-1.151 0.921,-1.843 l 4.607,-2.073 8.522,-2.073 c 2.995,-0.23 5.528,-1.382 7.601,-2.534 3.456,-1.843 7.833,-2.534 11.057,-4.606 5.066,-2.073 11.746,-1.843 17.967,-1.613 1.15,-0.229 2.763,-0.459 3.455,0.693 l 0,0 z"
         style="clip-rule:evenodd;fill:#00a600;fill-opacity:1;fill-rule:evenodd"
         inkscape:connector-curvature="0" />
      <path
         id="path5333"
         d="m 168.291,61.362 c 0.922,2.995 -0.92,5.067 -0.92,7.832 l -1.383,9.444 c -0.461,4.376 -1.381,8.753 -2.533,12.668 -1.842,3.686 -2.764,7.602 -5.527,10.366 -2.305,3.686 -6.221,5.527 -11.518,4.838 -2.533,-0.691 -4.607,-2.305 -5.529,-4.838 l 0.461,-0.691 c 1.152,-0.23 1.613,0.691 2.535,1.152 1.842,0.23 4.836,1.381 5.988,-0.461 -1.152,-2.533 -4.607,-2.994 -5.76,-5.759 -2.764,-4.376 -0.92,-11.517 -0.229,-16.584 0.689,-2.764 1.381,-5.298 2.533,-7.601 0.922,-3.225 2.533,-6.45 5.297,-8.062 0.922,0 1.383,0.461 1.613,0.691 -0.691,6.68 -3.916,11.286 -4.607,17.736 l -1.152,7.832 c 0.461,3.225 3.686,3.916 5.068,6.45 0.691,0.46 1.611,0.229 2.533,-0.23 1.844,-0.921 2.074,-2.995 2.766,-4.837 0.689,-2.533 1.381,-5.298 1.842,-7.832 l 1.152,-9.213 c 0.691,-1.151 0.23,-2.764 0.92,-4.146 l -0.229,-0.23 c -1.152,1.152 -1.152,3.916 -2.074,5.758 -1.842,5.298 -2.994,11.287 -6.219,15.663 -0.691,0.23 -1.613,0 -2.303,-0.23 -1.383,-1.151 -0.691,-3.455 -0.461,-5.297 1.15,-2.995 2.764,-5.759 3.914,-8.983 2.074,-6.219 3.227,-12.899 7.602,-17.506 0.922,-0.46 2.305,-1.382 3.455,-0.46 1.384,0.457 1.845,1.609 2.765,2.53 l 0,0 z"
         style="clip-rule:evenodd;fill:#00a600;fill-opacity:1;fill-rule:evenodd"
         inkscape:connector-curvature="0" />
      <path
         id="path5335"
         d="m 75.465,62.284 c -0.46,2.073 -2.534,2.533 -3.685,3.916 -0.921,0.921 -1.612,1.612 -2.534,2.073 -0.921,0 -2.534,0.23 -3.455,-0.23 -0.46,-1.382 1.382,-1.382 2.304,-1.843 1.151,-0.921 2.073,-2.534 3.455,-3.225 1.151,-0.231 2.303,-0.691 3.915,-0.691 l 0,0 z"
         style="clip-rule:evenodd;fill:#00a600;fill-opacity:1;fill-rule:evenodd"
         inkscape:connector-curvature="0" />
      <path
         id="path5337"
         d="m 141.342,64.357 c 0.691,3.916 -0.461,8.292 -3.225,10.365 -2.533,0.921 -4.607,2.994 -7.602,2.764 l -0.461,-0.921 c 0.922,-3.225 1.844,-6.45 1.613,-10.366 0.461,-0.921 1.383,-0.921 1.842,-0.46 0.922,1.151 1.152,2.534 1.613,3.916 1.383,-0.461 1.383,-1.843 1.383,-2.995 0.229,-1.382 0.461,-2.994 1.381,-3.916 0.922,-0.23 1.383,-0.23 2.074,0.23 0.921,0.231 0.921,1.152 1.382,1.383 l 0,0 z"
         style="clip-rule:evenodd;fill:#00a600;fill-opacity:1;fill-rule:evenodd"
         inkscape:connector-curvature="0" />
      <path
         id="path5339"
         d="m 46.903,67.121 c 0.921,0.921 0,2.304 -0.46,2.995 -1.382,1.382 -3.225,2.303 -5.528,1.843 0,-2.303 -0.921,-4.146 -0.691,-6.45 0.23,-0.23 0.691,-0.691 0.921,-0.691 2.303,-0.001 4.606,0.46 5.758,2.303 l 0,0 z"
         style="clip-rule:evenodd;fill:#00a600;fill-opacity:1;fill-rule:evenodd"
         inkscape:connector-curvature="0" />
      <path
         id="path5341"
         d="m 34.234,72.188 c 0.461,0.691 0,1.382 0,2.304 -0.23,0 -0.921,0 -1.151,0 -1.152,-2.073 -0.23,-4.607 0.691,-6.219 0.23,-0.461 0.23,0 0.46,0 l 0,3.915 0,0 z"
         style="clip-rule:evenodd;fill:#00a600;fill-opacity:1;fill-rule:evenodd"
         inkscape:connector-curvature="0" />
      <path
         id="path5343"
         transform="translate(-250.05057,-438.12706)"
         d="m 313.71484,516.44336 c -2.51705,-0.0381 -5.26976,0.69953 -6.85351,1.70703 -3.916,1.843 -5.98828,5.7587 -5.98828,10.5957 0,3.685 2.0714,6.67802 5.0664,8.29102 0.23,0.461 1.38188,0.23039 0.92188,1.15039 -1.151,0.23 -2.99449,0.23 -4.14649,0 -0.46,-0.69 -1.61173,-0.91986 -2.30273,-1.38086 -1.843,-2.075 -4.37663,-2.99501 -7.14063,-3.91602 -5.068,-1.15199 -10.59779,1.38079 -13.59179,-2.07421 -0.691,-0.922 -0.6898,-2.30314 -1.8418,-2.99414 -1.151,1.612 -6e-5,3.68487 0.46094,5.29687 1.381,3.225 5.29695,3.91789 8.75195,4.83789 4.837,0.461 9.67472,1.38275 14.51172,1.84375 4.147,0 7.60009,1.38038 11.74609,1.60938 0.691,-0.229 1.38369,0.23 2.30469,0 1.843,0.23 3.22489,-0.68993 4.83789,-0.91993 l 0,0.23047 c -1.844,1.612 -4.3777,1.61167 -6.2207,2.76368 l 0,0.92187 c 3.455,1.15 6.44836,-1.15275 9.44336,-1.84375 2.764,-1.381 6.44956,-2.53275 7.60156,-6.21875 0.691,-1.383 2.07267,-1.84261 2.76367,-3.22461 -0.692,-1.151 -2.30308,-0.92033 -3.45508,-1.61133 -1.151,0 -1.61173,0.46039 -2.30273,1.15039 -1.151,3.687 -6.21783,3.22502 -9.67383,3.91602 -0.69,-0.231 -0.46094,-0.69181 -0.46094,-1.38281 2.534,-0.921 3.91683,-3.68482 5.29883,-5.75782 0.691,-1.152 -0.69161,-4.14648 1.15039,-4.14648 5.298,1.151 10.82511,1.61214 15.66211,2.99414 2.304,0.921 5.5295,2.76434 8.0625,1.15234 0.691,-0.23 0.45852,-1.38179 0.22852,-1.84179 -1.842,-1.613 -3.91333,-2.76402 -5.98633,-3.91602 -1.842,-0.921 -2.76489,-3.22555 -4.83789,-3.68555 -3.456,-0.692 -5.75903,1.15114 -7.83203,2.99415 -2.764,0.461 -4.14569,-1.15235 -6.67969,-1.15235 -2.304,-0.921 -3.22539,-3.22505 -5.52539,-4.37305 -1.0365,-0.69112 -2.46243,-0.99273 -3.97266,-1.01562 z m -1.33593,3.38476 c 2.43993,0.0323 4.55587,0.67963 5.76562,2.23438 1.612,2.073 2.07394,6.44991 0.46094,8.75391 -1.843,2.073 -3.91656,4.60648 -7.60156,4.14648 -2.073,0.23 -4.1473,-0.23128 -5.5293,-1.61328 -1.382,-1.843 -2.3018,-4.14569 -1.8418,-6.67969 0.691,-3.225 3.68671,-5.29769 6.22071,-6.67969 0.86375,-0.11525 1.71207,-0.17289 2.52539,-0.16211 z"
         style="clip-rule:evenodd;fill:#00a600;fill-opacity:1;fill-rule:evenodd"
         inkscape:connector-curvature="0" />
      <path
         id="path5345"
         d="m 49.206,78.868 c 0,2.073 -1.612,2.995 -1.382,5.298 0,0.921 0.46,2.303 0,2.995 -2.073,0.69 -3.455,-0.922 -5.758,-0.691 -2.073,0.461 -3.916,3.225 -5.989,0.921 -0.46,-0.691 -0.23,-1.612 0.461,-1.843 2.073,-1.612 5.759,-0.691 7.602,-2.764 1.382,-1.382 2.072,-3.225 4.146,-4.146 l 0.92,0.23 0,0 z"
         style="clip-rule:evenodd;fill:#00a600;fill-opacity:1;fill-rule:evenodd"
         inkscape:connector-curvature="0" />
      <path
         id="path5347"
         d="m 35.155,82.093 c -0.46,1.382 -1.382,3.225 -2.994,3.686 -0.921,0.23 -1.382,-0.46 -1.612,-0.921 -0.461,-2.534 2.764,-2.304 3.455,-4.377 1.382,-0.922 0.921,0.921 1.151,1.612 l 0,0 z"
         style="clip-rule:evenodd;fill:#00a600;fill-opacity:1;fill-rule:evenodd"
         inkscape:connector-curvature="0" />
      <path
         id="path5351"
         d="m 66.021,84.166 c -0.23,0.691 0.921,0.921 0.23,1.612 -2.995,-0.691 -7.371,-0.46 -9.674,1.152 -0.691,-1.612 1.152,-2.073 1.843,-2.764 1.842,-1.152 5.758,-1.843 7.601,0 l 0,0 z"
         style="clip-rule:evenodd;fill:#00a600;fill-opacity:1;fill-rule:evenodd"
         inkscape:connector-curvature="0" />
      <path
         id="path5353"
         d="m 168.061,89.924 c 0,5.758 -2.072,9.904 -3.453,14.281 -0.461,0.922 -0.922,2.764 -2.074,1.613 -1.381,-2.305 0,-5.068 0.922,-7.141 1.152,-1.613 0.691,-4.377 1.611,-6.22 0.922,-1.382 0.922,-3.225 1.613,-4.607 1.381,-0.459 1.152,1.383 1.381,2.074 l 0,0 z"
         style="clip-rule:evenodd;fill:#00a600;fill-opacity:1;fill-rule:evenodd"
         inkscape:connector-curvature="0" />
      <path
         id="path5355"
         d="m 125.68,88.542 c 2.303,0.23 4.375,0.69 6.68,0.921 1.381,0.46 1.15,2.073 1.15,3.225 -1.842,5.989 -5.988,10.825 -12.668,11.517 -1.152,-0.23 -0.922,-1.611 -0.922,-2.764 1.152,-2.303 0.23,-5.528 -1.15,-7.601 -1.383,-1.382 -3.916,-1.613 -5.299,-3.225 -0.23,-0.461 0,-1.152 0.461,-1.383 3.225,-1.151 7.141,-0.921 10.826,-0.921 l 0.922,0.231 0,0 z"
         style="clip-rule:evenodd;fill:#00a600;fill-opacity:1;fill-rule:evenodd"
         inkscape:connector-curvature="0" />
      <path
         id="path5357"
         d="m 67.173,91.537 c 0,1.612 -0.691,2.534 -1.843,3.225 -1.843,0.921 -4.837,1.842 -6.91,0.691 -0.46,-0.691 -1.612,-1.151 -0.921,-2.073 1.612,0 4.606,0.461 5.989,-0.23 1.151,-0.462 2.072,-2.074 3.685,-1.613 l 0,0 z"
         style="clip-rule:evenodd;fill:#00a600;fill-opacity:1;fill-rule:evenodd"
         inkscape:connector-curvature="0" />
      <path
         id="path5359"
         d="m 117.156,94.531 c 1.613,1.152 1.613,3.225 1.383,5.528 l -1.383,10.137 c -0.461,2.533 -1.152,4.836 -1.611,7.139 -1.383,3.686 -2.074,7.602 -3.916,10.826 -1.844,2.305 -4.146,4.377 -4.146,8.062 0.23,0.691 -0.922,0.461 -1.152,0.23 -1.381,-1.383 -2.533,-3.686 -5.297,-2.764 -2.074,0 -3.686,1.842 -5.529,0.92 -0.461,-1.381 0.23,-2.764 0,-3.914 0.23,-1.152 0.23,-2.074 1.152,-2.535 2.303,-1.381 4.838,-1.842 7.832,-1.15 3.455,0.459 4.377,-2.766 5.988,-4.607 1.152,-4.377 1.383,-9.215 2.303,-13.82 0.691,-3.686 2.074,-8.062 0.691,-11.748 -0.23,-1.151 -1.842,-1.382 -3.225,-1.612 -3.686,1.842 -8.291,2.764 -12.207,3.456 -1.844,0 -2.535,1.381 -2.996,2.533 -0.23,0.922 0.691,0.461 1.152,0.922 0.461,0.461 1.383,0.691 1.613,1.842 -1.152,1.613 -2.535,3.455 -4.607,4.377 -2.304,0.922 -5.068,0.461 -7.832,0.691 -1.152,0 -2.995,0 -3.455,-1.383 l 0.23,-0.691 c 4.376,-2.303 8.062,-5.297 10.135,-9.674 2.303,-1.612 5.298,-2.073 8.062,-3.225 3.686,-1.843 10.596,-3.225 14.742,-0.691 l 2.073,1.151 0,0 z"
         style="clip-rule:evenodd;fill:#00a600;fill-opacity:1;fill-rule:evenodd"
         inkscape:connector-curvature="0" />
      <path
         id="path5361"
         d="m 22.487,95.648257 c -0.23,0.46 -0.23,0.691 -0.691,1.152 -0.921,0.229 -0.921,0 -1.612,-0.23 -0.461,0 -0.461,-0.921 -0.231,-1.382 0.691,-0.461 2.073,-0.461 2.534,0.46 l 0,0 z"
         style="clip-rule:evenodd;fill:#00a600;fill-opacity:1;fill-rule:evenodd"
         inkscape:connector-curvature="0" />
      <path
         id="path5363"
         d="m 53.583,103.975 c 0,1.383 -1.843,0.922 -2.994,1.152 -3.686,-0.23 -7.141,-0.461 -9.674,-1.844 l 0.23,-0.689 c 4.376,0 8.292,0.92 12.438,1.381 l 0,0 z"
         style="clip-rule:evenodd;fill:#00a600;fill-opacity:1;fill-rule:evenodd"
         inkscape:connector-curvature="0" />
      <path
         id="path5365"
         d="m 105.41,106.51 c 0.229,0.92 0,1.611 -0.461,2.303 -1.383,0.461 -3.686,0.922 -5.299,0.23 -0.23,-0.461 -0.461,-1.152 0,-1.613 1.153,-1.381 3.916,-2.303 5.76,-0.92 l 0,0 z"
         style="clip-rule:evenodd;fill:#00a600;fill-opacity:1;fill-rule:evenodd"
         inkscape:connector-curvature="0" />
      <path
         id="path5367"
         d="m 162.072,111.807 c 0.922,0.691 1.613,1.613 2.074,2.533 0,1.613 -2.074,1.152 -2.994,1.844 -1.152,0.691 -2.074,2.072 -3.225,2.994 -0.691,0 -0.922,-0.691 -0.922,-1.383 0.23,-1.842 -0.691,-3.916 0,-5.758 0.23,-1.152 0.922,-2.303 2.072,-2.994 1.614,0 2.075,1.842 2.995,2.764 l 0,0 z"
         style="clip-rule:evenodd;fill:#00a600;fill-opacity:1;fill-rule:evenodd"
         inkscape:connector-curvature="0" />
      <path
         id="path5371"
         d="m 153.32,114.801 c 0,0.922 -0.23,1.613 -0.922,1.613 -1.613,-0.23 -2.994,0.92 -4.146,-0.461 -0.691,-2.074 1.383,-2.994 2.305,-4.377 1.841,0.231 2.072,1.844 2.763,3.225 l 0,0 z"
         style="clip-rule:evenodd;fill:#00a600;fill-opacity:1;fill-rule:evenodd"
         inkscape:connector-curvature="0" />
      <path
         id="path5373"
         d="m 48.976,114.109 c 0.23,0.691 0,1.383 -0.461,1.844 -0.691,0.922 -1.382,0 -2.073,-0.461 -0.461,-0.461 0,-1.613 0.23,-2.072 0.692,-0.232 1.843,0 2.304,0.689 l 0,0 z"
         style="clip-rule:evenodd;fill:#00a600;fill-opacity:1;fill-rule:evenodd"
         inkscape:connector-curvature="0" />
      <path
         id="path5375"
         d="m 104.027,119.408 c 0.23,1.611 -0.23,2.764 -0.922,3.686 -0.461,0.461 -1.15,0 -1.15,-0.23 -0.461,-1.152 -0.922,-2.533 -0.23,-3.455 0.23,-0.462 2.072,-1.153 2.302,-0.001 l 0,0 z"
         style="clip-rule:evenodd;fill:#00a600;fill-opacity:1;fill-rule:evenodd"
         inkscape:connector-curvature="0" />
      <path
         id="path5377"
         d="m 142.725,120.1 c 0.461,1.15 -0.691,1.381 -0.922,2.072 -0.461,0.461 -1.383,0.691 -2.303,0.23 -0.461,-0.23 -0.461,-1.152 -0.23,-1.613 0.691,-0.92 2.994,-2.533 3.455,-0.689 l 0,0 z"
         style="clip-rule:evenodd;fill:#00a600;fill-opacity:1;fill-rule:evenodd"
         inkscape:connector-curvature="0" />
      <path
         id="path5381"
         d="m 88.133,127.93 c 0,0.691 0.23,1.152 -0.23,1.383 -1.843,0.23 -3.455,0.461 -4.837,-0.23 -0.23,-0.922 -0.23,-2.072 0.691,-2.303 2.074,-0.462 2.995,0.458 4.376,1.15 l 0,0 z"
         style="clip-rule:evenodd;fill:#00a600;fill-opacity:1;fill-rule:evenodd"
         inkscape:connector-curvature="0" />
      <path
         id="path5383"
         d="m 156.0113,131.71424 c 0.229,0.92 0.229,0.92 -0.23,1.381 -0.461,0.691 -1.383,1.152 -2.305,0.691 -0.23,-0.461 -0.691,-1.152 -0.23,-1.613 0.46,-0.92 2.304,-1.842 2.765,-0.459 l 0,0 z"
         style="clip-rule:evenodd;fill:#00a600;fill-opacity:1;fill-rule:evenodd"
         inkscape:connector-curvature="0" />
      <path
         id="path5385"
         d="m 84.218,146.127 c 0.231,0.691 0.231,2.074 -0.691,2.533 -0.691,0.23 -1.382,0.461 -2.073,-0.23 -0.691,-0.92 0,-1.842 0.461,-2.533 0.46,-1.381 2.073,-0.461 2.303,0.23 l 0,0 z"
         style="clip-rule:evenodd;fill:#00a600;fill-opacity:1;fill-rule:evenodd"
         inkscape:connector-curvature="0" />
      <path
         id="path5387"
         d="m 117.31211,147.049 c 0.23,0.922 -0.691,1.381 -1.152,1.842 -1.152,0.461 -1.613,-0.689 -2.533,-1.15 -0.461,-0.461 -0.922,-1.613 0,-2.074 1.38,-0.46 2.994,0.229 3.685,1.382 l 0,0 z"
         style="clip-rule:evenodd;fill:#00a600;fill-opacity:1;fill-rule:evenodd"
         inkscape:connector-curvature="0" />
    </g>
    <g
       style="display:inline;fill:none;fill-rule:evenodd;stroke:none;stroke-width:1"
       transform="matrix(1.1654505,0,0,1.1654505,-401.99612,385.54058)"
       id="twisted-t-4">
      <g
         id="black-9">
        <g
           inkscape:label="Layer 1"
           id="layer4"
           inkscape:groupmode="layer" />
      </g>
    </g>
    <rect
       style="opacity:1;fill:#008000;fill-opacity:1;stroke:none;stroke-width:12.30000019;stroke-linecap:butt;stroke-linejoin:round;stroke-miterlimit:3.9000001;stroke-dasharray:none;stroke-dashoffset:0;stroke-opacity:1"
       id="rect7698"
       width="230.31496"
       height="230.31496"
       x="1139.2295"
       y="509.68237" />
  </g>
</svg>
