<?xml version="1.0" encoding="utf-8"?>
<!-- Generator: Adobe Illustrator 20.1.0, SVG Export Plug-In . SVG Version: 6.00 Build 0)  -->
<svg version="1.1"
	 id="svg6572" inkscape:version="0.91 r13725" sodipodi:docname="flag.svg" xmlns:cc="http://creativecommons.org/ns#" xmlns:dc="http://purl.org/dc/elements/1.1/" xmlns:inkscape="http://www.inkscape.org/namespaces/inkscape" xmlns:rdf="http://www.w3.org/1999/02/22-rdf-syntax-ns#" xmlns:sodipodi="http://sodipodi.sourceforge.net/DTD/sodipodi-0.dtd" xmlns:svg="http://www.w3.org/2000/svg"
	 xmlns="http://www.w3.org/2000/svg" xmlns:xlink="http://www.w3.org/1999/xlink" x="0px" y="0px" viewBox="0 0 1296 864"
	 style="enable-background:new 0 0 1296 864;" xml:space="preserve">
<style type="text/css">
	.st0{fill:none;stroke:#000000;stroke-miterlimit:10;}
	.st1{fill:#00A600;}
	.st2{fill:none;}
</style>
<g>
	<g>
		<g>
			<polygon class="st0" points="1025.3,602.3 1067.8,625.8 1067.8,676.9 1025.3,653.4 			"/>
			<path class="st0" d="M1019.3,602.3v51.1l-48.5,26.8v0.5c-0.1,6.3-0.4,19.5,24.6,71.8c15.5,32.5,23.1,53.4,23.9,65.7v0.6
				l-42.7,23.5l-0.2-1.5c-2.4-16.8-14.4-44-27.1-70.8c-21.1-44.7-21-56.3-20.9-66.5l-48.6,26.8v-50.9L1019.3,602.3z"/>
			<polygon class="st0" points="1022.3,658.7 1064.5,681.9 1022.4,705.2 1021.9,704.9 980.2,681.9 			"/>
			<path class="st0" d="M977.3,687.4l41.9,23.1v0.7c-1,12.4-8,30-14.1,44v0l-1,2.2l-0.9-2.2c-0.9-2-2.3-5-3.9-8.6
				c-7.3-15.8-19.4-42.1-21.6-57.1L977.3,687.4z"/>
			<path class="st0" d="M922.7,713.7l0.2,1.5c1.3,9.3,5,20.8,12,37.3l0.4,0.9l-9.8,5.4l-42.3-23.2L922.7,713.7z"/>
			<path class="st0" d="M943.5,772l2.5,5.5c7.5,16.2,21.4,46.4,24,62.4l0.3,2l-42-23.1v-0.6c0.8-12.1,8.1-30.7,14.1-44.2L943.5,772z
				"/>
		</g>
		<path class="st0" d="M1493.2,811.5h-178c-34.1-157.3-174-275.1-341.5-275.1c-193,0-349.4,156.4-349.4,349.4
			s156.4,349.4,349.4,349.4c167.5,0,307.4-117.8,341.5-275.1h178V811.5z"/>
	</g>
	<circle class="st0" cx="1457.3" cy="850.9" r="7.1"/>
</g>
<sodipodi:namedview  bordercolor="#666666" borderopacity="1.0" id="base" inkscape:current-layer="layer1" inkscape:cx="-64.903604" inkscape:cy="210.22852" inkscape:document-units="px" inkscape:pageopacity="0.0" inkscape:pageshadow="2" inkscape:window-height="876" inkscape:window-maximized="1" inkscape:window-width="1440" inkscape:window-x="0" inkscape:window-y="256" inkscape:zoom="0.24748737" pagecolor="#ffffff" showgrid="false" units="in">
	</sodipodi:namedview>
<path class="st0" d="M377.3,74.8c163.2,0,295.5,132.3,295.5,295.5c-0.1,66.8-22.9,131.6-64.5,183.8c-6.7-2.9-13-7.3-19.3-11.3
	c-15-11.2-1.2-32.6,1.8-46.1c9-24,3.7-53.9,6-82.3c-2.2-13.5,3-21.7,5.2-32.2c3-15.7-10.5-20.2-18.7-26.2
	c-15.7-8.2-20.2,9-29.2,15.7c-2.2,1.5-4.5,1.5-6.7,0c0-6.7-1.5-12.7-3-18.7c-2.2-2.2-5.2-3.7-6.7-6c-12.7-2.2-12-21-28.4-18.7
	c-15,3-27.7,9.7-44.2,10.5c-21.7-0.7-40.4-7.5-62.1-9.7c-26.9-3-45.7,8.2-66.6,16.5c-5.2,3-12.7,2.2-18.7,4.5
	c-18,9-35.9,16.5-53.1,25.5l-3,0.7c-3.7,3-9,3.7-13.5,6l-17.2,0.7c-14.2-0.7-31.4,2.2-40.4-6.7c-8.2,0-15.7-3-23.2-0.7
	c-7.5,5.2-16.5,7.5-22.5,15.7c-6.7,9-3.7,24,0,32.9c-3.7,14.2-14.2,24-16.5,39.7c2.1,17.2-20.4,6.3-25.6,15.2
	c-13.7-34.6-20.8-71.5-20.8-108.7C81.8,207.1,214.1,74.8,377.3,74.8L377.3,74.8z"/>
<path class="st0" d="M125.4,491.3c6,0,8.1,0.2,11.1,4c2.2,8.2-6,10.5-9.7,15c-2.5,1-5,2.1-7.5,3.3c-4-7.2-5.4-9.7-8.7-17.3
	C117.8,496.3,120.3,491.4,125.4,491.3z"/>
<path class="st0" d="M487.5,494.1c0.7,0,1.4,0.1,2.2,0.4c6,3.7,6,12,11.2,17.2c3,8.2-8.2,8.2-7.5,16.5c8.2,8.2,15.7-4.5,25.5,0
	c3,1.5,4.5,3,6,6c-2.2,14.2-15.7,18.7-25.4,26.2c-3,3-8.2,4.5-8.2,9.7c1.5,4.5,5.2,4.5,8.2,6.7c8.2-1.5,12-8.2,16.5-13.5
	c3-5.2,12.7-5.2,19.5-4.5c3.7,1.5,8.2,4.5,9.7,9c2.2,6.7-2.2,11.2-3,16.5c-3,8.2-5,20.7-8,28.1c0.7,1.4-0.2,6.1,1.7,7.1
	c-27.5,17.4-57.8,30.1-89.4,37.7c-6.1-4.8-14.6-10.8-16.6-12.3c-12.7-3.7-24.7-12.7-27.7-26.2c-2.2-7.5,0.8-12.7,3-18.7
	c15.7-19.5,18.7-47.9,24.7-74.1l2.2-3.7c7.5-3.7,15.7-6.7,23.2-9.7c9.7-3.7,18-8.2,26.2-15C483.3,496.3,484.6,494.1,487.5,494.1z"/>
<path class="st0" d="M155.2,509.8c1.2,0,2.4,0.1,3.7,0.4c7.5,3.7,17.2,5.2,26.2,8.2c5.2,1.5,5.2,8.2,6,13.5c3.7,6.7-3,14.2,1.5,20.2
	c1.5,3,4.5,3.7,7.5,4.5c3-1.5,8.2-3,9-7.5c-0.8-8.2-7.5-15-3.7-24.7c1.5-2.2,3.7-2.2,6-3c15,1.5,26.2,6.7,40.4,8.2
	c14.2,2.2,25.4-2.2,38.2-3c17.2,3,35.2,4.5,53.1,5.2c14.2,0.7,27.7,2.2,41.2,3c5.2,2.2,2.2,7.5,2.2,12.7c-0.7,9-13.5,4.5-16.5,11.2
	c-3,4.5-1.5,12.7-1.5,18.7c-0.7,4.5-6.7,4.5-9.7,6.7c-9.7,0-21.7,4.5-30.7,0c-12-3-21,3-26.2,10.5c-0.7,5.2,5.2,3.7,8.2,5.2
	c9.7,0,18.7-3,27.7,0c3,2.2,4.5,5.2,5.2,9c-2.2,18-22.5,20.2-31.4,31.4c-2.3,5.1-6.7,9.8-7.4,15.7c-74.2-19-138.2-66-178.4-131.2
	l10.6-5C142.3,516,147.1,509.8,155.2,509.8L155.2,509.8z"/>
<path class="st0" d="M583.5,559.3c5.2,0.7,12.3,6.5,12.7,10.8c-6.6,11.6-39.2,38.7-38.6,34.1c5.2-12.7-0.5-34.9,12.2-41.6
	C573.5,560.4,577.8,559.4,583.5,559.3L583.5,559.3z"/>
<path class="st0" d="M366,624.1c17.1,0.3,19,14.9,31.9,23c3,3,5.9,10.2,9.5,15.4c-13.6,2-16.4,3.1-30.1,3.2c-19.7,0-39.3-2-58.6-5.9
	c1.7-2.6,2.4-5.9,3.4-9c6-11.2,18.7-15.7,28.4-23.2C356.1,625.1,361.2,624.1,366,624.1z"/>
<g id="g5464" transform="matrix(3.5547286,0,0,3.5547286,100.57438,409.96086)">
	<path id="path5325" inkscape:connector-curvature="0" class="st1" d="M117.5-20.6c0.2,0.4,0.2,1.3,0,1.5c-1.9,0.6-4.4,0.2-5.7-0.4
		c0.2-1.1,1.5-1.3,2.5-1.5C115.4-21.1,116.6-21.3,117.5-20.6L117.5-20.6L117.5-20.6z"/>
	<path id="path5327" inkscape:connector-curvature="0" class="st1" d="M76.2-16.2c-0.8,1.5-2.5,1.9-3.8,3.2l-7.6,2.9
		c-1.3,0.4-2.9,1.1-4.4,0.6c-0.2-1.5,1.5-1.9,2.3-2.9c3.6-2.3,8.4-2.9,12.4-4.4C75.8-16.9,76.2-16.6,76.2-16.2L76.2-16.2L76.2-16.2z
		"/>
	<path id="path5329" inkscape:connector-curvature="0" class="st1" d="M118.5-15.8c0.6,0.8,1.7,1.7,0.8,2.9
		c-1.1,1.1-2.7,2.3-4.4,1.5c-1.7-1.1-2.7-2.5-3.8-4.2c-0.2-0.6,0.4-0.6,0.6-0.8C114.3-16.6,116.4-16.2,118.5-15.8L118.5-15.8z"/>
	<path id="path5331" inkscape:connector-curvature="0" class="st1" d="M99.6-13.3c-0.4,3.8,3.6,7.8,0,10.5
		c-2.7,3.6-7.2,4.6-11.8,5.5c-4.8-0.2-6.5-4.4-9.9-6.5c-1.1-0.4-1.7-1.7-1.3-3.2c-2.3-0.6-3.2,2.1-4.4,3.2c-2.7,1.3-6.7,0.8-9.9,1.5
		c-2.7,0.2-5.5,0.6-8.2,0.8c-1.5,0.4-2.3,1.1-4,1.1c-0.4-0.6,0.6-1.1,0.8-1.7L55.1-4l7.8-1.9c2.7-0.2,5.1-1.3,6.9-2.3
		C73-9.9,77-10.5,80-12.4c4.6-1.9,10.7-1.7,16.4-1.5C97.5-14.1,98.9-14.3,99.6-13.3L99.6-13.3L99.6-13.3z"/>
	<path id="path5333" inkscape:connector-curvature="0" class="st1" d="M138.1-10.3c0.8,2.7-0.8,4.6-0.8,7.2L136,5.5
		c-0.4,4-1.3,8-2.3,11.6c-1.7,3.4-2.5,6.9-5.1,9.5c-2.1,3.4-5.7,5.1-10.5,4.4c-2.3-0.6-4.2-2.1-5.1-4.4l0.4-0.6
		c1.1-0.2,1.5,0.6,2.3,1.1c1.7,0.2,4.4,1.3,5.5-0.4c-1.1-2.3-4.2-2.7-5.3-5.3c-2.5-4-0.8-10.5-0.2-15.2c0.6-2.5,1.3-4.8,2.3-6.9
		c0.8-2.9,2.3-5.9,4.8-7.4c0.8,0,1.3,0.4,1.5,0.6c-0.6,6.1-3.6,10.3-4.2,16.2l-1.1,7.2c0.4,2.9,3.4,3.6,4.6,5.9
		c0.6,0.4,1.5,0.2,2.3-0.2c1.7-0.8,1.9-2.7,2.5-4.4c0.6-2.3,1.3-4.8,1.7-7.2l1.1-8.4c0.6-1.1,0.2-2.5,0.8-3.8L132-2.5
		c-1.1,1.1-1.1,3.6-1.9,5.3c-1.7,4.8-2.7,10.3-5.7,14.3c-0.6,0.2-1.5,0-2.1-0.2c-1.3-1.1-0.6-3.2-0.4-4.8c1.1-2.7,2.5-5.3,3.6-8.2
		c1.9-5.7,2.9-11.8,6.9-16c0.8-0.4,2.1-1.3,3.2-0.4C136.8-12.2,137.3-11.2,138.1-10.3L138.1-10.3L138.1-10.3z"/>
	<path id="path5335" inkscape:connector-curvature="0" class="st1" d="M53.3-9.5c-0.4,1.9-2.3,2.3-3.4,3.6C49-5.1,48.4-4.4,47.6-4
		c-0.8,0-2.3,0.2-3.2-0.2c-0.4-1.3,1.3-1.3,2.1-1.7c1.1-0.8,1.9-2.3,3.2-2.9C50.7-9.1,51.8-9.5,53.3-9.5L53.3-9.5L53.3-9.5z"/>
	<path id="path5337" inkscape:connector-curvature="0" class="st1" d="M113.5-7.6c0.6,3.6-0.4,7.6-2.9,9.5c-2.3,0.8-4.2,2.7-6.9,2.5
		l-0.4-0.8c0.8-2.9,1.7-5.9,1.5-9.5c0.4-0.8,1.3-0.8,1.7-0.4c0.8,1.1,1.1,2.3,1.5,3.6c1.3-0.4,1.3-1.7,1.3-2.7
		c0.2-1.3,0.4-2.7,1.3-3.6c0.8-0.2,1.3-0.2,1.9,0.2C113-8.6,113-7.8,113.5-7.6L113.5-7.6z"/>
	<path id="path5339" inkscape:connector-curvature="0" class="st1" d="M27.1-5.1c0.8,0.8,0,2.1-0.4,2.7c-1.3,1.3-2.9,2.1-5.1,1.7
		c0-2.1-0.8-3.8-0.6-5.9c0.2-0.2,0.6-0.6,0.8-0.6C24-7.2,26.1-6.8,27.1-5.1L27.1-5.1L27.1-5.1z"/>
	<path id="path5341" inkscape:connector-curvature="0" class="st1" d="M15.6-0.4c0.4,0.6,0,1.3,0,2.1c-0.2,0-0.8,0-1.1,0
		c-1.1-1.9-0.2-4.2,0.6-5.7c0.2-0.4,0.2,0,0.4,0V-0.4L15.6-0.4z"/>
	<path id="path5343" inkscape:connector-curvature="0" class="st1" d="M42.5,5.2c-2.3,0-4.8,0.6-6.3,1.6c-3.6,1.7-5.5,5.3-5.5,9.7
		c0,3.4,1.9,6.1,4.6,7.6c0.2,0.4,1.3,0.2,0.8,1.1c-1.1,0.2-2.7,0.2-3.8,0c-0.4-0.6-1.5-0.8-2.1-1.3c-1.7-1.9-4-2.7-6.5-3.6
		c-4.6-1.1-9.7,1.3-12.4-1.9c-0.6-0.8-0.6-2.1-1.7-2.7c-1.1,1.5,0,3.4,0.4,4.8c1.3,2.9,4.8,3.6,8,4.4c4.4,0.4,8.8,1.3,13.3,1.7
		c3.8,0,6.9,1.3,10.7,1.5c0.6-0.2,1.3,0.2,2.1,0c1.7,0.2,2.9-0.6,4.4-0.8v0.2c-1.7,1.5-4,1.5-5.7,2.5v0.8c3.2,1.1,5.9-1.1,8.6-1.7
		c2.5-1.3,5.9-2.3,6.9-5.7c0.6-1.3,1.9-1.7,2.5-2.9c-0.6-1.1-2.1-0.8-3.2-1.5c-1.1,0-1.5,0.4-2.1,1.1c-1.1,3.4-5.7,2.9-8.8,3.6
		c-0.6-0.2-0.4-0.6-0.4-1.3c2.3-0.8,3.6-3.4,4.8-5.3c0.6-1.1-0.6-3.8,1.1-3.8c4.8,1.1,9.9,1.5,14.3,2.7c2.1,0.8,5.1,2.5,7.4,1.1
		c0.6-0.2,0.4-1.3,0.2-1.7c-1.7-1.5-3.6-2.5-5.5-3.6c-1.7-0.8-2.5-2.9-4.4-3.4c-3.2-0.6-5.3,1.1-7.2,2.7c-2.5,0.4-3.8-1.1-6.1-1.1
		c-2.1-0.8-2.9-2.9-5.1-4C45.1,5.5,43.8,5.2,42.5,5.2z M41.2,8.3c2.2,0,4.2,0.6,5.3,2c1.5,1.9,1.9,5.9,0.4,8
		c-1.7,1.9-3.6,4.2-6.9,3.8c-1.9,0.2-3.8-0.2-5.1-1.5c-1.3-1.7-2.1-3.8-1.7-6.1c0.6-2.9,3.4-4.8,5.7-6.1C39.7,8.3,40.5,8.3,41.2,8.3
		z"/>
	<path id="path5345" inkscape:connector-curvature="0" class="st1" d="M29.2,5.7c0,1.9-1.5,2.7-1.3,4.8c0,0.8,0.4,2.1,0,2.7
		c-1.9,0.6-3.2-0.8-5.3-0.6c-1.9,0.4-3.6,2.9-5.5,0.8c-0.4-0.6-0.2-1.5,0.4-1.7c1.9-1.5,5.3-0.6,6.9-2.5c1.3-1.3,1.9-2.9,3.8-3.8
		L29.2,5.7L29.2,5.7L29.2,5.7z"/>
	<path id="path5347" inkscape:connector-curvature="0" class="st1" d="M16.4,8.6c-0.4,1.3-1.3,2.9-2.7,3.4c-0.8,0.2-1.3-0.4-1.5-0.8
		c-0.4-2.3,2.5-2.1,3.2-4C16.6,6.3,16.2,8,16.4,8.6L16.4,8.6z"/>
	<path id="path5351" inkscape:connector-curvature="0" class="st1" d="M44.6,10.5c-0.2,0.6,0.8,0.8,0.2,1.5
		c-2.7-0.6-6.7-0.4-8.8,1.1c-0.6-1.5,1.1-1.9,1.7-2.5C39.4,9.5,42.9,8.8,44.6,10.5L44.6,10.5z"/>
	<path id="path5353" inkscape:connector-curvature="0" class="st1" d="M137.9,15.8c0,5.3-1.9,9.1-3.2,13.1c-0.4,0.8-0.8,2.5-1.9,1.5
		c-1.3-2.1,0-4.6,0.8-6.5c1.1-1.5,0.6-4,1.5-5.7c0.8-1.3,0.8-2.9,1.5-4.2C137.9,13.5,137.7,15.1,137.9,15.8L137.9,15.8L137.9,15.8z"
		/>
	<path id="path5355" inkscape:connector-curvature="0" class="st1" d="M99.2,14.5c2.1,0.2,4,0.6,6.1,0.8c1.3,0.4,1.1,1.9,1.1,2.9
		c-1.7,5.5-5.5,9.9-11.6,10.5c-1.1-0.2-0.8-1.5-0.8-2.5c1.1-2.1,0.2-5.1-1.1-6.9c-1.3-1.3-3.6-1.5-4.8-2.9c-0.2-0.4,0-1.1,0.4-1.3
		c2.9-1.1,6.5-0.8,9.9-0.8L99.2,14.5L99.2,14.5L99.2,14.5z"/>
	<path id="path5357" inkscape:connector-curvature="0" class="st1" d="M45.7,17.3c0,1.5-0.6,2.3-1.7,2.9c-1.7,0.8-4.4,1.7-6.3,0.6
		c-0.4-0.6-1.5-1.1-0.8-1.9c1.5,0,4.2,0.4,5.5-0.2C43.4,18.3,44.2,16.8,45.7,17.3L45.7,17.3L45.7,17.3z"/>
	<path id="path5359" inkscape:connector-curvature="0" class="st1" d="M91.4,20c1.5,1.1,1.5,2.9,1.3,5.1l-1.3,9.3
		c-0.4,2.3-1.1,4.4-1.5,6.5c-1.3,3.4-1.9,6.9-3.6,9.9c-1.7,2.1-3.8,4-3.8,7.4c0.2,0.6-0.8,0.4-1.1,0.2c-1.3-1.3-2.3-3.4-4.8-2.5
		c-1.9,0-3.4,1.7-5.1,0.8c-0.4-1.3,0.2-2.5,0-3.6c0.2-1.1,0.2-1.9,1.1-2.3c2.1-1.3,4.4-1.7,7.2-1.1c3.2,0.4,4-2.5,5.5-4.2
		c1.1-4,1.3-8.4,2.1-12.6c0.6-3.4,1.9-7.4,0.6-10.7c-0.2-1.1-1.7-1.3-2.9-1.5c-3.4,1.7-7.6,2.5-11.2,3.2c-1.7,0-2.3,1.3-2.7,2.3
		c-0.2,0.8,0.6,0.4,1.1,0.8c0.4,0.4,1.3,0.6,1.5,1.7c-1.1,1.5-2.3,3.2-4.2,4c-2.1,0.8-4.6,0.4-7.2,0.6c-1.1,0-2.7,0-3.2-1.3l0.2-0.6
		c4-2.1,7.4-4.8,9.3-8.8c2.1-1.5,4.8-1.9,7.4-2.9c3.4-1.7,9.7-2.9,13.5-0.6L91.4,20L91.4,20L91.4,20z"/>
	<path id="path5361" inkscape:connector-curvature="0" class="st1" d="M4.8,21c-0.2,0.4-0.2,0.6-0.6,1.1c-0.8,0.2-0.8,0-1.5-0.2
		c-0.4,0-0.4-0.8-0.2-1.3C3.1,20.2,4.4,20.2,4.8,21L4.8,21L4.8,21z"/>
	<path id="path5363" inkscape:connector-curvature="0" class="st1" d="M33.2,28.6c0,1.3-1.7,0.8-2.7,1.1c-3.4-0.2-6.5-0.4-8.8-1.7
		l0.2-0.6C25.9,27.4,29.5,28.2,33.2,28.6L33.2,28.6L33.2,28.6z"/>
	<path id="path5365" inkscape:connector-curvature="0" class="st1" d="M80.6,30.9c0.2,0.8,0,1.5-0.4,2.1c-1.3,0.4-3.4,0.8-4.8,0.2
		c-0.2-0.4-0.4-1.1,0-1.5C76.4,30.5,78.9,29.7,80.6,30.9L80.6,30.9L80.6,30.9z"/>
	<path id="path5367" inkscape:connector-curvature="0" class="st1" d="M132.4,35.8c0.8,0.6,1.5,1.5,1.9,2.3c0,1.5-1.9,1.1-2.7,1.7
		c-1.1,0.6-1.9,1.9-2.9,2.7c-0.6,0-0.8-0.6-0.8-1.3c0.2-1.7-0.6-3.6,0-5.3c0.2-1.1,0.8-2.1,1.9-2.7
		C131.2,33.3,131.6,34.9,132.4,35.8L132.4,35.8L132.4,35.8z"/>
	<path id="path5371" inkscape:connector-curvature="0" class="st1" d="M124.4,38.5c0,0.8-0.2,1.5-0.8,1.5c-1.5-0.2-2.7,0.8-3.8-0.4
		c-0.6-1.9,1.3-2.7,2.1-4C123.6,35.8,123.8,37.3,124.4,38.5L124.4,38.5z"/>
	<path id="path5373" inkscape:connector-curvature="0" class="st1" d="M29,37.9c0.2,0.6,0,1.3-0.4,1.7c-0.6,0.8-1.3,0-1.9-0.4
		c-0.4-0.4,0-1.5,0.2-1.9C27.6,37,28.6,37.3,29,37.9L29,37.9L29,37.9z"/>
	<path id="path5375" inkscape:connector-curvature="0" class="st1" d="M79.4,42.7c0.2,1.5-0.2,2.5-0.8,3.4c-0.4,0.4-1.1,0-1.1-0.2
		c-0.4-1.1-0.8-2.3-0.2-3.2C77.5,42.3,79.1,41.7,79.4,42.7L79.4,42.7L79.4,42.7z"/>
	<path id="path5377" inkscape:connector-curvature="0" class="st1" d="M114.7,43.4c0.4,1.1-0.6,1.3-0.8,1.9
		c-0.4,0.4-1.3,0.6-2.1,0.2c-0.4-0.2-0.4-1.1-0.2-1.5C112.2,43.1,114.3,41.7,114.7,43.4L114.7,43.4L114.7,43.4z"/>
	<path id="path5381" inkscape:connector-curvature="0" class="st1" d="M64.8,50.5c0,0.6,0.2,1.1-0.2,1.3c-1.7,0.2-3.2,0.4-4.4-0.2
		c-0.2-0.8-0.2-1.9,0.6-2.1C62.7,49,63.6,49.9,64.8,50.5L64.8,50.5L64.8,50.5z"/>
	<path id="path5383" inkscape:connector-curvature="0" class="st1" d="M126.9,54c0.2,0.8,0.2,0.8-0.2,1.3c-0.4,0.6-1.3,1.1-2.1,0.6
		c-0.2-0.4-0.6-1.1-0.2-1.5C124.8,53.6,126.5,52.7,126.9,54L126.9,54L126.9,54z"/>
	<path id="path5385" inkscape:connector-curvature="0" class="st1" d="M61.3,67.2c0.2,0.6,0.2,1.9-0.6,2.3c-0.6,0.2-1.3,0.4-1.9-0.2
		c-0.6-0.8,0-1.7,0.4-2.3C59.6,65.7,61,66.5,61.3,67.2L61.3,67.2z"/>
	<path id="path5387" inkscape:connector-curvature="0" class="st1" d="M91.5,68c0.2,0.8-0.6,1.3-1.1,1.7c-1.1,0.4-1.5-0.6-2.3-1.1
		c-0.4-0.4-0.8-1.5,0-1.9C89.4,66.3,90.9,66.9,91.5,68L91.5,68z"/>
</g>
<g id="twisted-t-4" transform="matrix(1.1654505,0,0,1.1654505,-401.99612,385.54058)">
	<g id="black-9">
		<g id="layer4" inkscape:groupmode="layer" inkscape:label="Layer 1">
		</g>
	</g>
</g>
<path id="SVGID_x5F_1_x5F_" class="st2" d="M640.4,203.3c92.2,145.3,49.2,337.9-96.1,430.2s-337.9,49.2-430.2-96.1
	s-49.2-337.9,96.1-430.2S548.2,57.9,640.4,203.3z"/>
<text><textPath  xlink:href="#SVGID_x5F_1_x5F_" startOffset="97.1304%">
<tspan  style="font-family:'Helvetica-Light'; font-size:27.6124px;">Cornell Tech Company Challenge 2016	</tspan></textPath>
</text>
<path class="st0" d="M896.7,296H718.7c-34.1-157.3-174-275.1-341.5-275.1c-193,0-349.4,156.4-349.4,349.4s156.4,349.4,349.4,349.4
	c167.5,0,307.4-117.8,341.5-275.1h177.9V296z"/>
<ellipse class="st0" cx="860.7" cy="335.4" rx="7.1" ry="7.1"/>
</svg>
