<?xml version="1.0" encoding="iso-8859-1"?>
<!-- Generator: Adobe Illustrator 16.0.0, SVG Export Plug-In . SVG Version: 6.00 Build 0)  -->
<!DOCTYPE svg PUBLIC "-//W3C//DTD SVG 1.1//EN" "http://www.w3.org/Graphics/SVG/1.1/DTD/svg11.dtd">
<svg version="1.1" id="Layer_1" xmlns="http://www.w3.org/2000/svg" xmlns:xlink="http://www.w3.org/1999/xlink" x="0px" y="0px"
	 width="192.756px" height="192.756px" viewBox="0 0 192.756 192.756" style="enable-background:new 0 0 192.756 192.756;"
	 xml:space="preserve">
<g>
	<polygon style="fill-rule:evenodd;clip-rule:evenodd;fill:#FFFFFF;" points="0,0 192.756,0 192.756,192.756 0,192.756 0,0 	"/>
	<path style="fill-rule:evenodd;clip-rule:evenodd;fill:#76B254;" d="M129.365,50.766c5.066-0.23,8.982-2.303,13.59-3.225
		c5.066-0.69,4.836,5.067,8.752,5.759c0.461,0.691,1.383,1.151,2.074,1.843c0.459,1.843,0.92,3.686,0.92,5.759
		c0.691,0.46,1.383,0.46,2.074,0c2.764-2.073,4.146-7.371,8.982-4.837c2.533,1.842,6.68,3.225,5.758,8.062
		c-0.689,3.225-2.303,5.758-1.611,9.904c-0.691,8.753,0.922,17.967-1.844,25.338c-0.92,4.145-5.066,10.826-0.459,14.279
		c3.225,2.074,6.219,4.146,10.365,4.607c1.381,0.461,2.533,0.922,2.994,2.533c0,1.613-1.152,2.535-2.303,3.225
		c-3.686-0.229-4.377-4.145-7.832-4.605c-2.303-1.152-6.91-1.152-9.213,0.23c-3.916,2.072-4.838,6.68-6.451,10.596
		c-0.23,1.842,0,2.533-1.15,3.455c-0.922,0.461-2.305,1.381-3.686,0.691c-0.691-0.23-0.461-1.152-0.691-1.613
		c0.922-2.303,2.533-3.916,3.455-6.449c0.23-1.613,1.611-2.994,0.922-5.068c-0.461-1.381-1.844-2.303-2.994-2.764
		c-2.074-0.23-5.068-0.23-5.99,1.383c-1.381,1.611-2.533,3.686-5.066,4.145c-0.922-0.689-2.074-0.689-2.535-2.072
		c0-1.611,1.613-2.072,2.535-2.994c2.994-2.303,7.141-3.686,7.83-8.062c-0.459-0.922-0.92-1.381-1.842-1.842
		c-2.994-1.383-5.299,2.533-7.832,0c-0.23-2.533,3.225-2.533,2.303-5.068c-1.611-1.611-1.611-4.146-3.453-5.297
		c-1.383-0.461-1.844,0.461-2.535,0.92c-2.533,2.074-5.066,3.457-8.062,4.607c-2.303,0.922-4.836,1.844-7.139,2.994l-0.691,1.152
		c-1.844,8.062-2.764,16.814-7.602,22.805c-0.691,1.842-1.613,3.453-0.922,5.758c0.922,4.146,4.607,6.91,8.523,8.061
		c0.922,0.691,1.611,1.383,2.072,2.305c-0.691,1.381-2.072,2.072-3.686,2.303c-2.072-0.691-3.455-2.533-4.836-3.916
		c-5.068-3.225-10.135-9.674-17.967-5.988c-2.994,2.303-6.91,3.686-8.753,7.141c-0.46,1.383-0.691,2.994-2.073,3.686
		c-1.152,0.461-2.534,0.23-3.225-0.23c-0.921-2.764,1.152-4.607,2.073-6.68c2.765-3.455,8.984-4.146,9.674-9.674
		c-0.23-1.152-0.69-2.074-1.612-2.764c-2.764-0.922-5.528,0-8.522,0c-0.921-0.461-2.764,0-2.534-1.613
		c1.612-2.305,4.376-4.146,8.062-3.225c2.764,1.381,6.449,0,9.444,0c0.922-0.691,2.764-0.691,2.994-2.074
		c0-1.842-0.461-4.375,0.461-5.758c0.922-2.072,4.838-0.691,5.068-3.455c0-1.611,0.92-3.225-0.691-3.916
		c-4.146-0.23-8.293-0.691-12.669-0.92c-5.528-0.232-11.056-0.691-16.354-1.613c-3.916,0.23-7.371,1.613-11.747,0.922
		c-4.376-0.461-7.832-2.074-12.438-2.535c-0.691,0.23-1.382,0.23-1.843,0.922c-1.152,2.994,0.921,5.068,1.152,7.602
		c-0.23,1.383-1.843,1.842-2.764,2.303c-0.921-0.23-1.843-0.461-2.303-1.381c-1.382-1.844,0.69-4.146-0.461-6.219
		c-0.23-1.613-0.23-3.686-1.843-4.146c-2.764-0.922-5.759-1.383-8.062-2.535c-3.225-0.689-4.837,1.613-6.91,2.996l-8.293,3.914
		c-2.073,1.383-2.533,3.916-4.606,4.838c-1.843,0.23-2.303-1.152-3.455-1.842c-0.691-2.996,2.534-3.916,4.376-5.299
		c2.995-1.611,5.989-3.455,8.983-4.607c1.152-1.381,3.686-2.072,2.995-4.605c-0.921-1.152-1.843-2.074-3.686-2.074
		c-1.613,0-2.765,1.383-4.376,0.922c-1.152-0.922-2.764-1.612-2.534-3.455c1.151-3.455,8.752,0.46,8.062-5.068
		c0.691-4.837,3.916-7.831,5.067-12.208c-1.151-2.764-2.073-7.37,0-10.135c1.843-2.533,4.607-3.225,6.91-4.837
		c2.304-0.691,4.607,0.23,7.141,0.23c2.765,2.764,8.062,1.843,12.438,2.073l5.298-0.23c1.382-0.691,2.994-0.921,4.146-1.843
		l0.921-0.23c5.298-2.764,10.826-5.067,16.354-7.832c1.843-0.691,4.146-0.46,5.758-1.382c6.449-2.533,12.209-5.988,20.5-5.067
		C116.926,48.463,122.686,50.536,129.365,50.766L129.365,50.766z"/>
	<path style="fill-rule:evenodd;clip-rule:evenodd;fill:#FFFFFF;" d="M145.719,50.076c0.23,0.46,0.23,1.382,0,1.612
		c-2.072,0.691-4.838,0.23-6.219-0.461c0.23-1.151,1.611-1.382,2.764-1.612C143.416,49.615,144.797,49.385,145.719,50.076
		L145.719,50.076z"/>
	<path style="fill-rule:evenodd;clip-rule:evenodd;fill:#FFFFFF;" d="M100.572,54.913c-0.922,1.613-2.764,2.073-4.146,3.455
		l-8.292,3.225c-1.381,0.461-3.224,1.152-4.837,0.691c-0.23-1.612,1.613-2.073,2.534-3.225c3.916-2.534,9.213-3.225,13.589-4.837
		C100.111,54.222,100.572,54.452,100.572,54.913L100.572,54.913z"/>
	<path style="fill-rule:evenodd;clip-rule:evenodd;fill:#FFFFFF;" d="M146.871,55.374c0.689,0.921,1.842,1.843,0.92,3.225
		c-1.15,1.152-2.994,2.534-4.836,1.612c-1.844-1.151-2.994-2.764-4.146-4.606c-0.23-0.691,0.461-0.691,0.691-0.922
		C142.264,54.452,144.566,54.913,146.871,55.374L146.871,55.374z"/>
	<path style="fill-rule:evenodd;clip-rule:evenodd;fill:#FFFFFF;" d="M126.141,58.138c-0.461,4.146,3.914,8.522,0,11.517
		c-2.996,3.916-7.832,5.067-12.9,5.988c-5.297-0.23-7.141-4.837-10.826-7.141c-1.15-0.46-1.842-1.843-1.381-3.455
		c-2.535-0.69-3.455,2.304-4.838,3.455c-2.994,1.382-7.371,0.922-10.826,1.613c-2.995,0.23-5.989,0.691-8.983,0.921
		c-1.612,0.46-2.533,1.151-4.376,1.151c-0.461-0.691,0.691-1.151,0.921-1.843l4.607-2.073l8.522-2.073
		c2.995-0.23,5.528-1.382,7.601-2.534c3.456-1.843,7.833-2.534,11.057-4.606c5.066-2.073,11.746-1.843,17.967-1.613
		C123.836,57.216,125.449,56.986,126.141,58.138L126.141,58.138z"/>
	<path style="fill-rule:evenodd;clip-rule:evenodd;fill:#FFFFFF;" d="M168.291,61.362c0.922,2.995-0.92,5.067-0.92,7.832
		l-1.383,9.444c-0.461,4.376-1.381,8.753-2.533,12.668c-1.842,3.686-2.764,7.602-5.527,10.366
		c-2.305,3.686-6.221,5.527-11.518,4.838c-2.533-0.691-4.607-2.305-5.529-4.838l0.461-0.691c1.152-0.23,1.613,0.691,2.535,1.152
		c1.842,0.23,4.836,1.381,5.988-0.461c-1.152-2.533-4.607-2.994-5.76-5.759c-2.764-4.376-0.92-11.517-0.229-16.584
		c0.689-2.764,1.381-5.298,2.533-7.601c0.922-3.225,2.533-6.45,5.297-8.062c0.922,0,1.383,0.461,1.613,0.691
		c-0.691,6.68-3.916,11.286-4.607,17.736l-1.152,7.832c0.461,3.225,3.686,3.916,5.068,6.45c0.691,0.46,1.611,0.229,2.533-0.23
		c1.844-0.921,2.074-2.995,2.766-4.837c0.689-2.533,1.381-5.298,1.842-7.832l1.152-9.213c0.691-1.151,0.23-2.764,0.92-4.146
		l-0.229-0.23c-1.152,1.152-1.152,3.916-2.074,5.758c-1.842,5.298-2.994,11.287-6.219,15.663c-0.691,0.23-1.613,0-2.303-0.23
		c-1.383-1.151-0.691-3.455-0.461-5.297c1.15-2.995,2.764-5.759,3.914-8.983c2.074-6.219,3.227-12.899,7.602-17.506
		c0.922-0.46,2.305-1.382,3.455-0.46C166.91,59.289,167.371,60.441,168.291,61.362L168.291,61.362z"/>
	<path style="fill-rule:evenodd;clip-rule:evenodd;fill:#FFFFFF;" d="M75.465,62.284c-0.46,2.073-2.534,2.533-3.685,3.916
		c-0.921,0.921-1.612,1.612-2.534,2.073c-0.921,0-2.534,0.23-3.455-0.23c-0.46-1.382,1.382-1.382,2.304-1.843
		c1.151-0.921,2.073-2.534,3.455-3.225C72.701,62.744,73.853,62.284,75.465,62.284L75.465,62.284z"/>
	<path style="fill-rule:evenodd;clip-rule:evenodd;fill:#FFFFFF;" d="M141.342,64.357c0.691,3.916-0.461,8.292-3.225,10.365
		c-2.533,0.921-4.607,2.994-7.602,2.764l-0.461-0.921c0.922-3.225,1.844-6.45,1.613-10.366c0.461-0.921,1.383-0.921,1.842-0.46
		c0.922,1.151,1.152,2.534,1.613,3.916c1.383-0.461,1.383-1.843,1.383-2.995c0.229-1.382,0.461-2.994,1.381-3.916
		c0.922-0.23,1.383-0.23,2.074,0.23C140.881,63.205,140.881,64.126,141.342,64.357L141.342,64.357z"/>
	<path style="fill-rule:evenodd;clip-rule:evenodd;fill:#FFFFFF;" d="M46.903,67.121c0.921,0.921,0,2.304-0.46,2.995
		c-1.382,1.382-3.225,2.303-5.528,1.843c0-2.303-0.921-4.146-0.691-6.45c0.23-0.23,0.691-0.691,0.921-0.691
		C43.448,64.817,45.751,65.278,46.903,67.121L46.903,67.121z"/>
	<path style="fill-rule:evenodd;clip-rule:evenodd;fill:#FFFFFF;" d="M34.234,72.188c0.461,0.691,0,1.382,0,2.304
		c-0.23,0-0.921,0-1.151,0c-1.152-2.073-0.23-4.607,0.691-6.219c0.23-0.461,0.23,0,0.46,0V72.188L34.234,72.188z"/>
	<path style="fill-rule:evenodd;clip-rule:evenodd;fill:#FFFFFF;" d="M73.162,83.705c2.534,0,3.916,1.613,6.68,1.152
		c2.073-1.843,4.376-3.686,7.832-2.994c2.073,0.46,2.995,2.764,4.837,3.685c2.073,1.152,4.146,2.303,5.988,3.916
		c0.23,0.46,0.461,1.612-0.23,1.842c-2.533,1.612-5.757-0.23-8.061-1.151c-4.837-1.382-10.365-1.843-15.663-2.994
		c-1.842,0-0.46,2.994-1.151,4.146c-1.382,2.073-2.764,4.837-5.298,5.758c0,0.691-0.23,1.152,0.46,1.383
		c3.456-0.691,8.523-0.23,9.674-3.917c0.691-0.69,1.152-1.151,2.303-1.151c1.152,0.691,2.764,0.461,3.456,1.612
		c-0.691,1.382-2.073,1.842-2.764,3.225c-1.152,3.686-4.837,4.838-7.601,6.219c-2.995,0.691-5.989,2.994-9.444,1.844v-0.922
		c1.843-1.152,4.376-1.152,6.22-2.764v-0.23c-1.613,0.23-2.995,1.15-4.838,0.92c-0.921,0.23-1.612-0.229-2.303,0
		c-4.146-0.229-7.601-1.611-11.748-1.611c-4.837-0.461-9.674-1.383-14.511-1.844c-3.455-0.92-7.371-1.611-8.752-4.836
		c-0.461-1.612-1.612-3.686-0.461-5.298c1.152,0.691,1.152,2.073,1.843,2.995c2.994,3.455,8.522,0.921,13.59,2.073
		c2.764,0.921,5.298,1.842,7.141,3.917c0.691,0.461,1.843,0.691,2.303,1.381c1.152,0.23,2.995,0.23,4.146,0
		c0.46-0.92-0.691-0.689-0.921-1.15c-2.995-1.613-5.067-4.607-5.067-8.292c0-4.837,2.073-8.753,5.989-10.596
		c2.534-1.612,8.062-2.534,10.826-0.691C69.937,80.48,70.858,82.784,73.162,83.705L73.162,83.705z"/>
	<path style="fill-rule:evenodd;clip-rule:evenodd;fill:#FFFFFF;" d="M49.206,78.868c0,2.073-1.612,2.995-1.382,5.298
		c0,0.921,0.46,2.303,0,2.995c-2.073,0.69-3.455-0.922-5.758-0.691c-2.073,0.461-3.916,3.225-5.989,0.921
		c-0.46-0.691-0.23-1.612,0.461-1.843c2.073-1.612,5.759-0.691,7.602-2.764c1.382-1.382,2.072-3.225,4.146-4.146L49.206,78.868
		L49.206,78.868z"/>
	<path style="fill-rule:evenodd;clip-rule:evenodd;fill:#FFFFFF;" d="M35.155,82.093c-0.46,1.382-1.382,3.225-2.994,3.686
		c-0.921,0.23-1.382-0.46-1.612-0.921c-0.461-2.534,2.764-2.304,3.455-4.377C35.386,79.559,34.925,81.402,35.155,82.093
		L35.155,82.093z"/>
	<path style="fill-rule:evenodd;clip-rule:evenodd;fill:#76B254;" d="M68.094,83.936c1.612,2.073,2.073,6.449,0.46,8.753
		c-1.843,2.073-3.916,4.606-7.601,4.146c-2.073,0.23-4.146-0.23-5.528-1.612c-1.382-1.843-2.303-4.146-1.843-6.68
		c0.691-3.225,3.686-5.298,6.22-6.68C63.257,81.402,66.481,81.863,68.094,83.936L68.094,83.936z"/>
	<path style="fill-rule:evenodd;clip-rule:evenodd;fill:#FFFFFF;" d="M66.021,84.166c-0.23,0.691,0.921,0.921,0.23,1.612
		c-2.995-0.691-7.371-0.46-9.674,1.152c-0.691-1.612,1.152-2.073,1.843-2.764C60.262,83.014,64.178,82.323,66.021,84.166
		L66.021,84.166z"/>
	<path style="fill-rule:evenodd;clip-rule:evenodd;fill:#FFFFFF;" d="M168.061,89.924c0,5.758-2.072,9.904-3.453,14.281
		c-0.461,0.922-0.922,2.764-2.074,1.613c-1.381-2.305,0-5.068,0.922-7.141c1.152-1.613,0.691-4.377,1.611-6.22
		c0.922-1.382,0.922-3.225,1.613-4.607C168.061,87.391,167.832,89.233,168.061,89.924L168.061,89.924z"/>
	<path style="fill-rule:evenodd;clip-rule:evenodd;fill:#FFFFFF;" d="M125.68,88.542c2.303,0.23,4.375,0.69,6.68,0.921
		c1.381,0.46,1.15,2.073,1.15,3.225c-1.842,5.989-5.988,10.825-12.668,11.517c-1.152-0.23-0.922-1.611-0.922-2.764
		c1.152-2.303,0.23-5.528-1.15-7.601c-1.383-1.382-3.916-1.613-5.299-3.225c-0.23-0.461,0-1.152,0.461-1.383
		c3.225-1.151,7.141-0.921,10.826-0.921L125.68,88.542L125.68,88.542z"/>
	<path style="fill-rule:evenodd;clip-rule:evenodd;fill:#FFFFFF;" d="M67.173,91.537c0,1.612-0.691,2.534-1.843,3.225
		c-1.843,0.921-4.837,1.842-6.91,0.691c-0.46-0.691-1.612-1.151-0.921-2.073c1.612,0,4.606,0.461,5.989-0.23
		C64.639,92.688,65.56,91.076,67.173,91.537L67.173,91.537z"/>
	<path style="fill-rule:evenodd;clip-rule:evenodd;fill:#FFFFFF;" d="M117.156,94.531c1.613,1.152,1.613,3.225,1.383,5.528
		l-1.383,10.137c-0.461,2.533-1.152,4.836-1.611,7.139c-1.383,3.686-2.074,7.602-3.916,10.826c-1.844,2.305-4.146,4.377-4.146,8.062
		c0.23,0.691-0.922,0.461-1.152,0.23c-1.381-1.383-2.533-3.686-5.297-2.764c-2.074,0-3.686,1.842-5.529,0.92
		c-0.461-1.381,0.23-2.764,0-3.914c0.23-1.152,0.23-2.074,1.152-2.535c2.303-1.381,4.838-1.842,7.832-1.15
		c3.455,0.459,4.377-2.766,5.988-4.607c1.152-4.377,1.383-9.215,2.303-13.82c0.691-3.686,2.074-8.062,0.691-11.748
		c-0.23-1.151-1.842-1.382-3.225-1.612c-3.686,1.842-8.291,2.764-12.207,3.456c-1.844,0-2.535,1.381-2.996,2.533
		c-0.23,0.922,0.691,0.461,1.152,0.922c0.461,0.461,1.383,0.691,1.613,1.842c-1.152,1.613-2.535,3.455-4.607,4.377
		c-2.304,0.922-5.068,0.461-7.832,0.691c-1.152,0-2.995,0-3.455-1.383l0.23-0.691c4.376-2.303,8.062-5.297,10.135-9.674
		c2.303-1.612,5.298-2.073,8.062-3.225c3.686-1.843,10.596-3.225,14.742-0.691L117.156,94.531L117.156,94.531z"/>
	<path style="fill-rule:evenodd;clip-rule:evenodd;fill:#FFFFFF;" d="M22.487,95.222c-0.23,0.46-0.23,0.691-0.691,1.152
		c-0.921,0.229-0.921,0-1.612-0.23c-0.461,0-0.461-0.921-0.231-1.382C20.644,94.301,22.026,94.301,22.487,95.222L22.487,95.222z"/>
	<path style="fill-rule:evenodd;clip-rule:evenodd;fill:#FFFFFF;" d="M53.583,103.975c0,1.383-1.843,0.922-2.994,1.152
		c-3.686-0.23-7.141-0.461-9.674-1.844l0.23-0.689C45.521,102.594,49.437,103.514,53.583,103.975L53.583,103.975z"/>
	<path style="fill-rule:evenodd;clip-rule:evenodd;fill:#FFFFFF;" d="M105.41,106.51c0.229,0.92,0,1.611-0.461,2.303
		c-1.383,0.461-3.686,0.922-5.299,0.23c-0.23-0.461-0.461-1.152,0-1.613C100.803,106.049,103.566,105.127,105.41,106.51
		L105.41,106.51z"/>
	<path style="fill-rule:evenodd;clip-rule:evenodd;fill:#FFFFFF;" d="M162.072,111.807c0.922,0.691,1.613,1.613,2.074,2.533
		c0,1.613-2.074,1.152-2.994,1.844c-1.152,0.691-2.074,2.072-3.225,2.994c-0.691,0-0.922-0.691-0.922-1.383
		c0.23-1.842-0.691-3.916,0-5.758c0.23-1.152,0.922-2.303,2.072-2.994C160.691,109.043,161.152,110.885,162.072,111.807
		L162.072,111.807z"/>
	<path style="fill-rule:evenodd;clip-rule:evenodd;fill:#FFFFFF;" d="M17.189,110.885c0.461,0.922-0.461,1.844-0.921,2.535
		c-0.691,0.229-1.843,0.459-2.303-0.232c-0.691-0.229-0.461-1.15-0.461-1.611C14.425,110.654,16.268,109.734,17.189,110.885
		L17.189,110.885z"/>
	<path style="fill-rule:evenodd;clip-rule:evenodd;fill:#FFFFFF;" d="M153.32,114.801c0,0.922-0.23,1.613-0.922,1.613
		c-1.613-0.23-2.994,0.92-4.146-0.461c-0.691-2.074,1.383-2.994,2.305-4.377C152.398,111.807,152.629,113.42,153.32,114.801
		L153.32,114.801z"/>
	<path style="fill-rule:evenodd;clip-rule:evenodd;fill:#FFFFFF;" d="M48.976,114.109c0.23,0.691,0,1.383-0.461,1.844
		c-0.691,0.922-1.382,0-2.073-0.461c-0.461-0.461,0-1.613,0.23-2.072C47.364,113.188,48.515,113.42,48.976,114.109L48.976,114.109z"
		/>
	<path style="fill-rule:evenodd;clip-rule:evenodd;fill:#FFFFFF;" d="M104.027,119.408c0.23,1.611-0.23,2.764-0.922,3.686
		c-0.461,0.461-1.15,0-1.15-0.23c-0.461-1.152-0.922-2.533-0.23-3.455C101.955,118.947,103.797,118.256,104.027,119.408
		L104.027,119.408z"/>
	<path style="fill-rule:evenodd;clip-rule:evenodd;fill:#FFFFFF;" d="M142.725,120.1c0.461,1.15-0.691,1.381-0.922,2.072
		c-0.461,0.461-1.383,0.691-2.303,0.23c-0.461-0.23-0.461-1.152-0.23-1.613C139.961,119.869,142.264,118.256,142.725,120.1
		L142.725,120.1z"/>
	<path style="fill-rule:evenodd;clip-rule:evenodd;fill:#FFFFFF;" d="M178.887,120.789c0.23,0.922-0.229,1.383-0.689,1.613
		c-1.152,0.461-1.844-0.23-2.305-0.691c-0.459-0.461,0.23-0.922,0.23-1.381C176.814,119.408,178.658,119.639,178.887,120.789
		L178.887,120.789z"/>
	<path style="fill-rule:evenodd;clip-rule:evenodd;fill:#FFFFFF;" d="M88.133,127.93c0,0.691,0.23,1.152-0.23,1.383
		c-1.843,0.23-3.455,0.461-4.837-0.23c-0.23-0.922-0.23-2.072,0.691-2.303C85.831,126.318,86.752,127.238,88.133,127.93
		L88.133,127.93z"/>
	<path style="fill-rule:evenodd;clip-rule:evenodd;fill:#FFFFFF;" d="M154.012,131.156c0.229,0.92,0.229,0.92-0.23,1.381
		c-0.461,0.691-1.383,1.152-2.305,0.691c-0.23-0.461-0.691-1.152-0.23-1.613C151.707,130.695,153.551,129.773,154.012,131.156
		L154.012,131.156z"/>
	<path style="fill-rule:evenodd;clip-rule:evenodd;fill:#FFFFFF;" d="M84.218,146.127c0.231,0.691,0.231,2.074-0.691,2.533
		c-0.691,0.23-1.382,0.461-2.073-0.23c-0.691-0.92,0-1.842,0.461-2.533C82.375,144.516,83.988,145.436,84.218,146.127
		L84.218,146.127z"/>
	<path style="fill-rule:evenodd;clip-rule:evenodd;fill:#FFFFFF;" d="M119,147.049c0.23,0.922-0.691,1.381-1.152,1.842
		c-1.152,0.461-1.613-0.689-2.533-1.15c-0.461-0.461-0.922-1.613,0-2.074C116.695,145.207,118.309,145.896,119,147.049L119,147.049z
		"/>
</g>
</svg>
